<?xml version="1.0" encoding="UTF-8"?>
<svg version="1.1" xmlns="http://www.w3.org/2000/svg" width="64" height="64">
<path d="M0 0 C3.52340199 0.32775832 5.96820624 0.98346724 9.125 2.625 C11.78982687 4.18426138 11.78982687 4.18426138 14.125 3.875 C16.09708487 3.06432648 16.09708487 3.06432648 17.75 1.4375 C21.16348916 -0.7433403 23.99872124 -0.20006394 28 0 C28.495 1.485 28.495 1.485 29 3 C30.051875 2.505 31.10375 2.01 32.1875 1.5 C37.91130455 -0.64642671 43.97529928 -0.78683671 50 0 C52.78870063 1.28225163 54.49165604 2.30026148 56.296875 4.78515625 C57.23332813 7.73498361 57.26429791 10.34557801 57.25 13.4375 C57.25773437 15.10619141 57.25773437 15.10619141 57.265625 16.80859375 C56.99900866 20.01191062 56.19062461 22.04796444 55 25 C54.53318125 28.34380539 54.17510754 31.66799815 53.87695312 35.02929688 C53.3954185 39.6060449 52.28931732 43.01396793 50 47 C49.34 47 48.68 47 48 47 C47.9175 47.78375 47.835 48.5675 47.75 49.375 C47 52 47 52 45.1875 53.0625 C44.465625 53.371875 43.74375 53.68125 43 54 C42.4225 54.639375 41.845 55.27875 41.25 55.9375 C35.47214698 61.23386527 28.52820489 61.3958913 21.05078125 61.69140625 C18.02901743 61.85472658 18.02901743 61.85472658 15.5078125 63 C10.5752045 64.96689665 5.20279291 64.65932507 0 64 C-3.28440901 62.39069941 -5.34334028 60.31331944 -7 57 C-7.12327929 54.89851818 -7.17558006 52.79256093 -7.1875 50.6875 C-7.20876953 48.99173828 -7.20876953 48.99173828 -7.23046875 47.26171875 C-7.00044309 44.00627089 -6.22265562 41.9845814 -5 39 C-4.71878758 36.73703593 -4.51295111 34.46369338 -4.375 32.1875 C-4.30023438 31.02605469 -4.22546875 29.86460938 -4.1484375 28.66796875 C-4.09945313 27.78753906 -4.05046875 26.90710938 -4 26 C-4.99 25.34 -5.98 24.68 -7 24 C-6.67 22.35 -6.34 20.7 -6 19 C-4.9275 18.79375 -3.855 18.5875 -2.75 18.375 C1.70591174 16.7411657 2.77777608 15.08889201 5 11 C2.69 9.35 0.38 7.7 -2 6 C-1.125 1.125 -1.125 1.125 0 0 Z M37 4 C37 4.66 37 5.32 37 6 C38.3596961 6.93016247 39.76491884 7.79419404 41.1875 8.625 C45.47248337 11.34690767 47.69333322 13.99369155 50.02734375 18.4609375 C50.34832031 18.96882813 50.66929688 19.47671875 51 20 C51.66 20 52.32 20 53 20 C54.51687471 15.44937587 54.71895824 11.61765604 52.75 7.1875 C50.8417835 4.80222938 49.90651969 3.88810324 47 3 C43.28183899 2.80430732 40.53970718 2.82009761 37 4 Z M-3 44 C-4.51687471 48.55062413 -4.71895824 52.38234396 -2.75 56.8125 C-0.8417835 59.19777062 0.09348031 60.11189676 3 61 C6.71816101 61.19569268 9.46029282 61.17990239 13 60 C13 59.34 13 58.68 13 58 C11.6403039 57.06983753 10.23508116 56.20580596 8.8125 55.375 C4.52751663 52.65309233 2.30666678 50.00630845 -0.02734375 45.5390625 C-0.50880859 44.77722656 -0.50880859 44.77722656 -1 44 C-1.66 44 -2.32 44 -3 44 Z " fill="#030505" transform="translate(7,0)"/>
<path d="M0 0 C2.83885784 1.43689114 5.55123554 2.95830288 8 5 C8 5.66 8 6.32 8 7 C6.906875 7.20625 5.81375 7.4125 4.6875 7.625 C0.78405083 8.62874838 0.78405083 8.62874838 -0.6875 12 C-1.120625 12.99 -1.55375 13.98 -2 15 C-4.1875 16.375 -4.1875 16.375 -6 17 C-5.67 19.31 -5.34 21.62 -5 24 C1.93 24.495 1.93 24.495 9 25 C9 24.34 9 23.68 9 23 C7.71802734 23.01740234 7.71802734 23.01740234 6.41015625 23.03515625 C5.30542969 23.04417969 4.20070312 23.05320312 3.0625 23.0625 C1.96035156 23.07410156 0.85820313 23.08570312 -0.27734375 23.09765625 C-3 23 -3 23 -4 22 C-4.04063832 20.33382885 -4.042721 18.66611905 -4 17 C-2.35 16.67 -0.7 16.34 1 16 C1.309375 15.030625 1.61875 14.06125 1.9375 13.0625 C3 10 3 10 4 9 C6.33297433 8.95907063 8.66705225 8.95758277 11 9 C16.36262613 18.91128223 15.63763247 27.30191025 13 38 C12.731875 39.155 12.46375 40.31 12.1875 41.5 C11 44 11 44 8.9375 45.1875 C7.968125 45.455625 6.99875 45.72375 6 46 C4.45755588 46.53944882 2.91594523 47.08128437 1.375 47.625 C-1.35194438 48.56500472 -3.07607209 49 -6 49 C-6.12375 48.195625 -6.2475 47.39125 -6.375 46.5625 C-6.58125 45.716875 -6.7875 44.87125 -7 44 C-9.31139135 42.84430433 -10.86938589 42.86807421 -13.4375 42.75 C-15.890625 42.51171875 -15.890625 42.51171875 -18 42 C-19.6875 39.5625 -19.6875 39.5625 -21 37 C-24.07561246 35.64019119 -24.07561246 35.64019119 -27 35 C-27.33 33.35 -27.66 31.7 -28 30 C-27.38125 29.731875 -26.7625 29.46375 -26.125 29.1875 C-23.7004767 28.04443152 -23.7004767 28.04443152 -22 25 C-19.65234375 24.671875 -19.65234375 24.671875 -16.9375 24.75 C-16.03902344 24.76546875 -15.14054687 24.7809375 -14.21484375 24.796875 C-12 25 -12 25 -11 26 C-10.92160505 27.4575653 -10.86207189 28.91616999 -10.8125 30.375 C-10.65605281 32.82082557 -10.65605281 32.82082557 -10 35 C-7.06644453 36.80029482 -7.06644453 36.80029482 -4 38 C-3.125 40.6875 -3.125 40.6875 -3 43 C-2.67 43 -2.34 43 -2 43 C-2 41.02 -2 39.04 -2 37 C-2.969375 36.67 -3.93875 36.34 -4.9375 36 C-8 34 -8 34 -8.55078125 32.08984375 C-8.73837978 30.06304399 -8.87102395 28.03137285 -9 26 C-11.70078753 23.29921247 -13.24035172 23.70105642 -17 23.6875 C-18.60875 23.66236328 -18.60875 23.66236328 -20.25 23.63671875 C-21.1575 23.75660156 -22.065 23.87648438 -23 24 C-23.66 24.99 -24.32 25.98 -25 27 C-27.125 28.1875 -27.125 28.1875 -29 29 C-29 31.31 -29 33.62 -29 36 C-26.69 36.66 -24.38 37.32 -22 38 C-21.67 39.65 -21.34 41.3 -21 43 C-20.22914062 43.04898438 -19.45828125 43.09796875 -18.6640625 43.1484375 C-17.66117188 43.22320312 -16.65828125 43.29796875 -15.625 43.375 C-14.12839844 43.47941406 -14.12839844 43.47941406 -12.6015625 43.5859375 C-10 44 -10 44 -8 46 C-8 47.32 -8 48.64 -8 50 C-15.55868672 50.60957151 -20.70683431 49.32006093 -27 45 C-30.90264219 41.42857836 -34.8825456 37.30790839 -36 32 C-35.70647502 29.0060452 -35.34525472 26.69050945 -34 24 C-33.34 24 -32.68 24 -32 24 C-32 24.66 -32 25.32 -32 26 C-27.60423247 23.50906506 -27.31464468 20.68342168 -26 16 C-23.875 13.5625 -23.875 13.5625 -22 12 C-17.79373966 13.50223584 -16.26099979 16.28550034 -14 20 C-12.68 19.67 -11.36 19.34 -10 19 C-10.4848397 15.80005798 -11.26689205 13.4148905 -12.625 10.4375 C-14 7 -14 7 -14.0625 4.8125 C-10.70986746 -0.90669669 -5.96126154 -1.74726631 0 0 Z " fill="#6ED0F6" transform="translate(43,8)"/>
<path d="M0 0 C2.83885784 1.43689114 5.55123554 2.95830288 8 5 C8 5.66 8 6.32 8 7 C6.906875 7.20625 5.81375 7.4125 4.6875 7.625 C0.78405083 8.62874838 0.78405083 8.62874838 -0.6875 12 C-1.3371875 13.485 -1.3371875 13.485 -2 15 C-4.0625 16.1875 -4.0625 16.1875 -6 17 C-6.66 17.99 -7.32 18.98 -8 20 C-9.03513247 17.9237343 -10.05266211 15.83868521 -11.0625 13.75 C-11.63097656 12.58984375 -12.19945313 11.4296875 -12.78515625 10.234375 C-14 7 -14 7 -13.84765625 4.72265625 C-10.95878404 -1.1482776 -5.64043851 -1.65323198 0 0 Z M-22 12 C-17.76712351 13.5117416 -16.36874785 16.3322614 -14 20 C-13.01 20.66 -12.02 21.32 -11 22 C-13.10320971 24.10320971 -17.58400043 23.38225817 -20.43359375 23.5234375 C-21.28050781 23.68070313 -22.12742187 23.83796875 -23 24 C-23.99 25.485 -23.99 25.485 -25 27 C-27.125 28.1875 -27.125 28.1875 -29 29 C-29 31.31 -29 33.62 -29 36 C-26.69 36.66 -24.38 37.32 -22 38 C-21.67 39.65 -21.34 41.3 -21 43 C-20.22914062 43.04898438 -19.45828125 43.09796875 -18.6640625 43.1484375 C-17.66117188 43.22320312 -16.65828125 43.29796875 -15.625 43.375 C-14.12839844 43.47941406 -14.12839844 43.47941406 -12.6015625 43.5859375 C-10 44 -10 44 -8 46 C-8 47.32 -8 48.64 -8 50 C-15.55868672 50.60957151 -20.70683431 49.32006093 -27 45 C-30.90264219 41.42857836 -34.8825456 37.30790839 -36 32 C-35.70647502 29.0060452 -35.34525472 26.69050945 -34 24 C-33.34 24 -32.68 24 -32 24 C-32 24.66 -32 25.32 -32 26 C-27.60423247 23.50906506 -27.31464468 20.68342168 -26 16 C-23.875 13.5625 -23.875 13.5625 -22 12 Z " fill="#6BCBEF" transform="translate(43,8)"/>
<path d="M0 0 C2.42343176 1.87593142 3.30972202 2.82621031 4.23046875 5.7265625 C4.49609375 8.78515625 4.49609375 8.78515625 4.48046875 12.1640625 C4.48820312 13.83275391 4.48820312 13.83275391 4.49609375 15.53515625 C4.22947741 18.73847312 3.42109336 20.77452694 2.23046875 23.7265625 C1.76365 27.07036789 1.40557629 30.39456065 1.10742188 33.75585938 C0.62588725 38.3326074 -0.48021393 41.74053043 -2.76953125 45.7265625 C-3.42953125 45.3965625 -4.08953125 45.0665625 -4.76953125 44.7265625 C-4.62515625 44.12070312 -4.48078125 43.51484375 -4.33203125 42.890625 C-2.15423022 33.06027314 -1.94860675 25.14241216 -5.76953125 15.7265625 C-9.17568071 15.74782712 -9.17568071 15.74782712 -12.76953125 16.7265625 C-13.83453275 18.69271911 -14.83786299 20.69383176 -15.76953125 22.7265625 C-18.45703125 23.6015625 -18.45703125 23.6015625 -20.76953125 23.7265625 C-20.43953125 25.3765625 -20.10953125 27.0265625 -19.76953125 28.7265625 C-15.80953125 29.0565625 -11.84953125 29.3865625 -7.76953125 29.7265625 C-7.76953125 30.3865625 -7.76953125 31.0465625 -7.76953125 31.7265625 C-10.06062722 31.80731915 -12.35252392 31.86563981 -14.64453125 31.9140625 C-16.55878906 31.96626953 -16.55878906 31.96626953 -18.51171875 32.01953125 C-19.58679688 31.92285156 -20.661875 31.82617188 -21.76953125 31.7265625 C-23.91154651 28.51353961 -24.42279001 27.45946969 -23.76953125 23.7265625 C-22.12619621 22.68866669 -20.45709258 21.69088326 -18.76953125 20.7265625 C-17.55083196 18.22208734 -17.55083196 18.22208734 -16.76953125 15.7265625 C-14.76953125 13.7265625 -14.76953125 13.7265625 -11.64453125 13.6015625 C-10.69578125 13.6428125 -9.74703125 13.6840625 -8.76953125 13.7265625 C-8.76953125 13.0665625 -8.76953125 12.4065625 -8.76953125 11.7265625 C-10.09211597 11.03881845 -11.42939628 10.37944877 -12.76953125 9.7265625 C-13.88328125 9.1696875 -14.99703125 8.6128125 -16.14453125 8.0390625 C-20.16191472 6.58449262 -21.73920879 6.46708673 -25.76953125 7.7265625 C-28.1995752 8.94650359 -30.45319271 10.2904326 -32.76953125 11.7265625 C-32.76953125 10.7365625 -32.76953125 9.7465625 -32.76953125 8.7265625 C-28.54095982 4.7265625 -28.54095982 4.7265625 -24.76953125 4.7265625 C-24.43953125 3.7365625 -24.10953125 2.7465625 -23.76953125 1.7265625 C-16.73137423 -1.92786518 -7.39504364 -3.40025984 0 0 Z M-15.76953125 2.7265625 C-15.76953125 3.3865625 -15.76953125 4.0465625 -15.76953125 4.7265625 C-14.40983515 5.65672497 -13.00461241 6.52075654 -11.58203125 7.3515625 C-7.29704788 10.07347017 -5.07619803 12.72025405 -2.7421875 17.1875 C-2.42121094 17.69539063 -2.10023437 18.20328125 -1.76953125 18.7265625 C-1.10953125 18.7265625 -0.44953125 18.7265625 0.23046875 18.7265625 C1.74734346 14.17593837 1.94942699 10.34421854 -0.01953125 5.9140625 C-1.92774775 3.52879188 -2.86301156 2.61466574 -5.76953125 1.7265625 C-9.48769226 1.53086982 -12.22982407 1.54666011 -15.76953125 2.7265625 Z " fill="#030506" transform="translate(59.76953125,1.2734375)"/>
<path d="M0 0 C2.34765625 -0.328125 2.34765625 -0.328125 5.0625 -0.25 C5.96097656 -0.23453125 6.85945313 -0.2190625 7.78515625 -0.203125 C10 0 10 0 11 1 C11.07839495 2.4575653 11.13792811 3.91616999 11.1875 5.375 C11.34861203 7.82306958 11.34861203 7.82306958 12 10 C14.9000525 11.74170298 14.9000525 11.74170298 18 13 C20.00262887 17.00525774 20.25867741 19.72049681 19 24 C18.01 24 17.02 24 16 24 C15.87625 23.195625 15.7525 22.39125 15.625 21.5625 C15.41875 20.716875 15.2125 19.87125 15 19 C12.68860865 17.84430433 11.13061411 17.86807421 8.5625 17.75 C6.109375 17.51171875 6.109375 17.51171875 4 17 C2.3125 14.5625 2.3125 14.5625 1 12 C-2.07561246 10.64019119 -2.07561246 10.64019119 -5 10 C-5.33 8.35 -5.66 6.7 -6 5 C-5.38125 4.731875 -4.7625 4.46375 -4.125 4.1875 C-1.7004767 3.04443152 -1.7004767 3.04443152 0 0 Z " fill="#99DB54" transform="translate(21,33)"/>
<path d="M0 0 C2.83885784 1.43689114 5.55123554 2.95830288 8 5 C8 5.66 8 6.32 8 7 C6.906875 7.20625 5.81375 7.4125 4.6875 7.625 C0.78405083 8.62874838 0.78405083 8.62874838 -0.6875 12 C-1.3371875 13.485 -1.3371875 13.485 -2 15 C-4.0625 16.1875 -4.0625 16.1875 -6 17 C-6.66 17.99 -7.32 18.98 -8 20 C-9.03513247 17.9237343 -10.05266211 15.83868521 -11.0625 13.75 C-11.63097656 12.58984375 -12.19945313 11.4296875 -12.78515625 10.234375 C-14 7 -14 7 -13.84765625 4.72265625 C-10.95878404 -1.1482776 -5.64043851 -1.65323198 0 0 Z M-13 21 C-12.01 21.495 -12.01 21.495 -11 22 C-11.99 22.495 -11.99 22.495 -13 23 C-13 22.34 -13 21.68 -13 21 Z " fill="#6ED1F7" transform="translate(43,8)"/>
<path d="M0 0 C0.74765625 0.37253906 1.4953125 0.74507813 2.265625 1.12890625 C3.74289062 1.83853516 3.74289062 1.83853516 5.25 2.5625 C6.22453125 3.03816406 7.1990625 3.51382812 8.203125 4.00390625 C11.12778991 5.04551177 12.20428313 5.23704286 15 4 C15.66 3.319375 16.32 2.63875 17 1.9375 C19 0 19 0 23 0 C21.34714286 4.70428571 21.34714286 4.70428571 19.3125 6.4375 C17.68310541 8.0195133 17.68310541 8.0195133 18.125 10.8125 C18.90763838 14.08422785 18.90763838 14.08422785 20.625 17.1875 C22 20 22 20 21 23 C18.69 20.03 16.38 17.06 14 14 C10.33095612 15.83452194 8.47341488 16.84426378 6 20 C5.19234122 23.64721696 5.19234122 23.64721696 5 27 C4.34 27 3.68 27 3 27 C2.79375 26.05125 2.5875 25.1025 2.375 24.125 C1.29166667 20.70833333 1.29166667 20.70833333 -2.125 19.625 C-3.548125 19.315625 -3.548125 19.315625 -5 19 C-5 18.67 -5 18.34 -5 18 C-3.453125 17.938125 -3.453125 17.938125 -1.875 17.875 C2.44172329 16.90025603 3.99431048 15.68166639 7.03125 12.66796875 C8.18974978 11.0270836 8.18974978 11.0270836 7.87890625 8.96484375 C6.79213007 6.53529523 5.67601592 5.77689886 3.4375 4.375 C1.49609375 3.1484375 1.49609375 3.1484375 0 2 C0 1.34 0 0.68 0 0 Z " fill="#EDEDED" transform="translate(9,3)"/>
<path d="M0 0 C3.52340199 0.32775832 5.96820624 0.98346724 9.125 2.625 C11.78982687 4.18426138 11.78982687 4.18426138 14.125 3.875 C16.09708487 3.06432648 16.09708487 3.06432648 17.75 1.4375 C21.16348916 -0.7433403 23.99872124 -0.20006394 28 0 C28 1.98 28 3.96 28 6 C26.68 6.33 25.36 6.66 24 7 C24.33 5.68 24.66 4.36 25 3 C21.94255926 4.01914691 20.20235223 4.77867725 18 7.1875 C16 9 16 9 13.75 9 C10.00244239 7.63725178 6.51483444 5.87515981 3 4 C5.5162178 6.60608273 8.05134359 8.89381685 11 11 C10.14719369 15.61518711 7.80124839 18.32601838 4 21 C0.625 21.375 0.625 21.375 -2 21 C-1.01 20.34 -0.02 19.68 1 19 C1.71727778 17.35448038 2.38325228 15.68577711 3 14 C3.66 13.01 4.32 12.02 5 11 C2.69 9.35 0.38 7.7 -2 6 C-1.125 1.125 -1.125 1.125 0 0 Z " fill="#172024" transform="translate(7,0)"/>
<path d="M0 0 C1.134375 0.020625 2.26875 0.04125 3.4375 0.0625 C4.11845109 1.43048211 4.78158239 2.80734003 5.4375 4.1875 C5.80875 4.95320313 6.18 5.71890625 6.5625 6.5078125 C7.58057513 9.48022827 7.58222534 11.94185994 7.4375 15.0625 C4.45796641 14.92232174 1.47900696 14.77563658 -1.5 14.625 C-2.35013672 14.58568359 -3.20027344 14.54636719 -4.07617188 14.50585938 C-4.88505859 14.46396484 -5.69394531 14.42207031 -6.52734375 14.37890625 C-7.65064087 14.32391968 -7.65064087 14.32391968 -8.79663086 14.26782227 C-10.5625 14.0625 -10.5625 14.0625 -11.5625 13.0625 C-11.60313832 11.39632885 -11.605221 9.72861905 -11.5625 8.0625 C-9.9125 7.7325 -8.2625 7.4025 -6.5625 7.0625 C-6.253125 6.093125 -5.94375 5.12375 -5.625 4.125 C-4.21956052 0.07402738 -4.21956052 0.07402738 0 0 Z " fill="#9ADD54" transform="translate(50.5625,16.9375)"/>
<path d="M0 0 C0.66 0 1.32 0 2 0 C2.8680908 1.91040052 3.71901783 3.82860737 4.5625 5.75 C5.03816406 6.81734375 5.51382813 7.8846875 6.00390625 8.984375 C6.9946154 11.98369837 7.16161779 13.13421241 6 16 C4.68 16.33 3.36 16.66 2 17 C0.02 14.36 -1.96 11.72 -4 9 C-7.89459074 10.68377223 -7.89459074 10.68377223 -10 13 C-10.28875 14.155 -10.5775 15.31 -10.875 16.5 C-12 20 -12 20 -14.125 21.4375 C-14.74375 21.623125 -15.3625 21.80875 -16 22 C-16 21.34 -16 20.68 -16 20 C-17.65 20 -19.3 20 -21 20 C-21 17.69 -21 15.38 -21 13 C-19.35 12.67 -17.7 12.34 -16 12 C-15.67 13.98 -15.34 15.96 -15 18 C-14.34 18 -13.68 18 -13 18 C-13.144375 16.989375 -13.28875 15.97875 -13.4375 14.9375 C-12.83094561 9.47851048 -10.07016343 7.41603002 -6 4 C-2.78034336 5.36216242 -1.18312565 6.72531153 0.75 9.625 C1.17796875 10.25664062 1.6059375 10.88828125 2.046875 11.5390625 C2.36140625 12.02117188 2.6759375 12.50328125 3 13 C2.566875 11.700625 2.566875 11.700625 2.125 10.375 C1.08333333 7.25 0.04166667 4.125 -1 1 C-0.67 0.67 -0.34 0.34 0 0 Z " fill="#0C1315" transform="translate(27,12)"/>
<path d="M0 0 C1.93681161 -0.08107583 3.8745934 -0.13922475 5.8125 -0.1875 C6.89144531 -0.22230469 7.97039063 -0.25710937 9.08203125 -0.29296875 C12 0 12 0 13.875 1.25 C15.88351938 4.37436349 15.1783083 7.37439786 15 11 C15.78375 11.12375 16.5675 11.2475 17.375 11.375 C20 12 20 12 22 14 C22.125 17.125 22.125 17.125 22 20 C21.01 20 20.02 20 19 20 C18.938125 19.21625 18.87625 18.4325 18.8125 17.625 C18.544375 16.75875 18.27625 15.8925 18 15 C15.55711372 13.68931667 15.55711372 13.68931667 13 13 C11.41727399 11.41727399 11.65264253 9.61965997 11.4375 7.4375 C11.31181641 6.19806641 11.31181641 6.19806641 11.18359375 4.93359375 C11.12300781 4.29550781 11.06242187 3.65742187 11 3 C9.37581255 2.91909029 7.75048255 2.86085005 6.125 2.8125 C5.22007813 2.77769531 4.31515625 2.74289063 3.3828125 2.70703125 C2.59648437 2.80371094 1.81015625 2.90039062 1 3 C0.01 4.485 0.01 4.485 -1 6 C-1.99 6.33 -2.98 6.66 -4 7 C-3.67 8.65 -3.34 10.3 -3 12 C-2.05125 12.2475 -1.1025 12.495 -0.125 12.75 C3 14 3 14 4.4375 15.9375 C5 18 5 18 4 21 C3.34 20.67 2.68 20.34 2 20 C1.375 17.4375 1.375 17.4375 1 15 C-0.134375 14.855625 -1.26875 14.71125 -2.4375 14.5625 C-6 14 -6 14 -7 13 C-7.1875 9.5625 -7.1875 9.5625 -7 6 C-6.34 5.34 -5.68 4.68 -5 4 C-4.01 4 -3.02 4 -2 4 C-1.34 2.68 -0.68 1.36 0 0 Z " fill="#030605" transform="translate(20,31)"/>
<path d="M0 0 C0.66 0.33 1.32 0.66 2 1 C0.03030303 7.81818182 0.03030303 7.81818182 -3 10 C-3.99 10 -4.98 10 -6 10 C-5.67 11.65 -5.34 13.3 -5 15 C-1.04 15.33 2.92 15.66 7 16 C7 16.66 7 17.32 7 18 C4.70890403 18.08075665 2.41700733 18.13907731 0.125 18.1875 C-1.78925781 18.23970703 -1.78925781 18.23970703 -3.7421875 18.29296875 C-4.81726562 18.19628906 -5.89234375 18.09960938 -7 18 C-9.14201526 14.78697711 -9.65325876 13.73290719 -9 10 C-7.35666496 8.96210419 -5.68756133 7.96432076 -4 7 C-2.78130071 4.49552484 -2.78130071 4.49552484 -2 2 C-1.34 1.34 -0.68 0.68 0 0 Z " fill="#0D1510" transform="translate(45,15)"/>
<path d="M0 0 C1.98 0.99 1.98 0.99 4 2 C4 4.64 4 7.28 4 10 C4.78375 10.12375 5.5675 10.2475 6.375 10.375 C9 11 9 11 11 13 C11.125 16.125 11.125 16.125 11 19 C10.01 19 9.02 19 8 19 C7.9071875 17.824375 7.9071875 17.824375 7.8125 16.625 C7.544375 15.75875 7.27625 14.8925 7 14 C4.55711372 12.68931667 4.55711372 12.68931667 2 12 C0.26043342 10.26043342 0.62809614 7.8063378 0.4375 5.4375 C0.35371094 4.42558594 0.26992188 3.41367187 0.18359375 2.37109375 C0.12300781 1.58863281 0.06242187 0.80617187 0 0 Z " fill="#121E18" transform="translate(31,32)"/>
<path d="M0 0 C0.33 1.98 0.66 3.96 1 6 C1.66 6 2.32 6 3 6 C3 4.35 3 2.7 3 1 C3.66 0.67 4.32 0.34 5 0 C5.3669579 6.48292295 5.3669579 6.48292295 3.625 8.9375 C2 10 2 10 0 10 C0 9.34 0 8.68 0 8 C-1.65 8 -3.3 8 -5 8 C-5 5.69 -5 3.38 -5 1 C-2 0 -2 0 0 0 Z " fill="#040708" transform="translate(11,24)"/>
<path d="M0 0 C0.53625 0.45375 1.0725 0.9075 1.625 1.375 C3.98938198 3.16923829 3.98938198 3.16923829 7.125 3.9375 C10 5 10 5 11.4375 6.9375 C12 9 12 9 11 12 C10.34 11.67 9.68 11.34 9 11 C8.375 8.4375 8.375 8.4375 8 6 C5.69 5.67 3.38 5.34 1 5 C0.67 3.35 0.34 1.7 0 0 Z " fill="#0A100D" transform="translate(13,40)"/>
<path d="M0 0 C0.66 0.33 1.32 0.66 2 1 C2 1.99 2 2.98 2 4 C0.5390625 5.38671875 0.5390625 5.38671875 -1.375 6.6875 C-2.00148438 7.12449219 -2.62796875 7.56148437 -3.2734375 8.01171875 C-5 9 -5 9 -7 9 C-5.44499019 5.18315774 -2.96404505 2.80804268 0 0 Z " fill="#162226" transform="translate(21,16)"/>
<path d="M0 0 C0.33 1.32 0.66 2.64 1 4 C0.360625 4.103125 -0.27875 4.20625 -0.9375 4.3125 C-1.618125 4.539375 -2.29875 4.76625 -3 5 C-3.33 5.99 -3.66 6.98 -4 8 C-4.33 8 -4.66 8 -5 8 C-5 5.69 -5 3.38 -5 1 C-2 0 -2 0 0 0 Z " fill="#3C6B7D" transform="translate(11,24)"/>
<path d="M0 0 C3.53233755 1.17744585 3.86308075 1.95605641 5.6875 5.0625 C6.12449219 5.79597656 6.56148437 6.52945312 7.01171875 7.28515625 C7.33785156 7.85105469 7.66398437 8.41695312 8 9 C4.21875 8.2421875 4.21875 8.2421875 2.25 6.0625 C1 4 1 4 1 2 C0.34 1.67 -0.32 1.34 -1 1 C-0.67 0.67 -0.34 0.34 0 0 Z " fill="#0D1011" transform="translate(22,17)"/>
<path d="M0 0 C1.98 0.99 1.98 0.99 4 2 C4 4.64 4 7.28 4 10 C3.01 10.33 2.02 10.66 1 11 C0.67 7.37 0.34 3.74 0 0 Z " fill="#1D2C1A" transform="translate(31,32)"/>
<path d="M0 0 C0.99 0 1.98 0 3 0 C2.67 1.32 2.34 2.64 2 4 C0.68 4.33 -0.64 4.66 -2 5 C-2.33 4.01 -2.66 3.02 -3 2 C-2.01 2 -1.02 2 0 2 C0 1.34 0 0.68 0 0 Z " fill="#111F24" transform="translate(31,24)"/>
</svg>
